<!DOCTYPE svg PUBLIC "-//W3C//DTD SVG 1.1//EN" "http://www.w3.org/Graphics/SVG/1.1/DTD/svg11.dtd">
<svg width="64px" height="64px" viewBox="0 0 960 960" fill="none" xmlns="http://www.w3.org/2000/svg">
    <g>
        <path stroke="#9719ea" stroke-width="30"
              d="M274.488 716.853C281.881 668.164 317.688 547.155 279.237 509.358C255.101 485.078 232.229 459.52 209.385 433.999C197.677 419.382 184.032 404.986 177.125 387.317C165.532 352.045 211.705 350.961 235.133 346.106C267.185 336.224 375.151 329.017 387.891 306.881C410.861 268.906 433.257 230.588 455.833 192.378C465.68 172.608 492.575 170.344 504.022 190.094C524.785 229.899 548.279 268.14 572.092 306.223C579.353 318.028 589.133 323.794 603.859 324.407C661.664 328.136 720.21 328.346 777.533 336.662C828.463 354.015 772.965 396.212 754.098 416.834C726.386 445.454 698.299 473.715 670.874 502.606C651.169 523.364 651.873 523.653 656.882 551.713C665.715 606.204 677.603 660.486 684.214 715.214C683.289 740.428 664.653 751.771 642.326 739.999C588.769 712.188 536.928 681.023 481.72 656.517C475.366 653.507 469.9 654.782 463.915 658.42C422.075 683.855 380.126 709.112 338.002 734.072C313.986 750.633 273.808 761.446 274.488 716.853Z"/>
    </g>
</svg>
